# xmcd
# 
# Track frame offsets:
#   180
#   14632
#   30152
#   48455
#   65248
#   78513
#   92081
#   106777
#   120795
#   133627
#   154922
#   172690
#   191353
#   209118
#   225099
# 
# Disc length: 3200 seconds
# 
# Revision: 2
# Processed by: cddbd v1.5.2PL0 Copyright (c) Steve Scherf et al.
# Submitted via: Synapstar 1.0 
# 
DISCID=b60c7e0f
DTITLE=Various Artist - SC8167
DYEAR=1900
DGENRE=Country
TTITLE0=Tracy Lawrence - Can'T Break It To My Heart
TTITLE1=Carlene Carter - Every Little Thing
TTITLE2=Alan Jackson - Livin' On Love
TTITLE3=Doug Supernaw - Reno
TTITLE4=Sammy Kershaw - Haunted Heart
TTITLE5=Kathy Mattea - Time Passes By
TTITLE6=Confederate Railroad - Summer In Dixie
TTITLE7=Tanya Tucker - Without You What Do I Do With Me
TTITLE8=Randy Travis - Better Class Of Losers
TTITLE9=Trisha Yearwood - Walkaway Joe
TTITLE10=Wynonna Judd - Only Love
TTITLE11=Alabama - Cheap Seats
TTITLE12=Billy Dean - Cowboy Band
TTITLE13=Suzy Bogguss - Just Like The Weather
TTITLE14=Mark Chestnutt - Bubba Shot The Jukebox
EXTD=MediaType: Karaoke CD+G Producer: Sound Choice
EXTT0=
EXTT1=
EXTT2=
EXTT3=
EXTT4=
EXTT5=
EXTT6=
EXTT7=
EXTT8=
EXTT9=
EXTT10=
EXTT11=
EXTT12=
EXTT13=
EXTT14=
PLAYORDER=
